<svg width="470" height="318" viewBox="0 0 470 318" fill="none" xmlns="http://www.w3.org/2000/svg">
<path d="M92.3028 275.727C125.336 275.727 158.369 275.727 191.403 275.727C224.328 275.727 257.253 275.727 290.142 275.727C308.75 275.727 327.394 275.727 346.003 275.727C346.688 275.727 346.688 274.646 346.003 274.646C312.969 274.646 279.936 274.646 246.903 274.646C213.978 274.646 181.053 274.646 148.164 274.646C129.555 274.646 110.911 274.646 92.3028 274.646C91.6176 274.646 91.6176 275.727 92.3028 275.727Z" fill="#919B9B"/>
<path d="M352.674 253.307C352.385 263.688 353.431 274.069 355.811 284.197C355.956 284.882 357.001 284.594 356.857 283.909C354.513 273.888 353.467 263.616 353.792 253.307C353.756 252.622 352.674 252.622 352.674 253.307Z" fill="#919B9B"/>
<path d="M395.624 254.137C396.634 263.724 396.021 273.42 393.821 282.792C393.677 283.476 394.687 283.765 394.867 283.08C397.103 273.6 397.752 263.832 396.706 254.137C396.634 253.452 395.552 253.452 395.624 254.137Z" fill="#919B9B"/>
<path d="M356.244 285.207C368.722 288.378 381.92 287.946 394.146 283.909C394.795 283.693 394.506 282.647 393.857 282.864C381.776 286.829 368.83 287.297 356.532 284.161C355.847 284.017 355.559 285.062 356.244 285.207Z" fill="#919B9B"/>
<path d="M353.179 253.812C367.207 256.804 381.74 256.732 395.732 253.632C396.417 253.488 396.129 252.442 395.444 252.587C381.632 255.65 367.279 255.686 353.467 252.767C352.782 252.623 352.493 253.668 353.179 253.812Z" fill="#919B9B"/>
<path d="M361.726 254.209C359.851 249.991 361.546 244.837 362.952 240.692C364.394 236.403 366.45 232.33 368.974 228.581C368.686 228.617 368.397 228.653 368.109 228.689C368.938 229.627 369.84 230.275 370.958 230.816C371.391 230.996 371.859 230.708 371.751 230.203C371.319 228.257 370.561 226.347 371.427 224.4C372.04 223.031 372.905 221.661 373.627 220.363C373.374 220.435 373.122 220.507 372.869 220.543C373.626 221.012 374.384 221.445 375.141 221.913C375.646 222.238 376.079 221.625 375.898 221.156C375.141 219.498 374.636 217.84 375.682 216.182C376.295 215.173 377.089 214.272 377.774 213.335C379.288 211.316 380.875 209.298 382.462 207.315C385.491 203.531 388.629 199.854 391.874 196.25C391.586 196.214 391.297 196.178 391.009 196.142C395.625 202.197 398.546 209.442 399.339 217.011C399.736 220.652 399.628 224.4 398.978 228.005C398.654 229.843 398.185 231.645 397.608 233.411C397.5 233.772 397.356 234.132 397.247 234.456C396.851 235.466 396.202 235.898 395.156 236.115C394.435 236.259 394.038 236.151 393.425 236.619C393.136 236.835 393.064 237.196 393.317 237.484C394.11 238.313 394.435 238.457 394.146 239.575C393.966 240.296 393.533 241.053 393.208 241.773C392.559 243.215 391.838 244.621 391.081 245.991C389.53 248.802 387.763 251.469 385.78 253.992C385.347 254.533 386.104 255.29 386.537 254.749C390.36 249.847 393.389 244.477 395.661 238.71C395.733 238.529 395.661 238.313 395.516 238.169C395.048 237.7 394.579 237.196 394.074 236.727C394.038 237.016 394.002 237.304 393.966 237.592C394.795 237.016 395.733 237.412 396.598 237.052C397.284 236.799 397.644 236.295 397.933 235.646C398.726 233.952 399.231 232.005 399.664 230.203C400.565 226.238 400.854 222.165 400.565 218.129C399.952 209.983 396.959 202.089 391.982 195.601C391.802 195.349 391.405 195.205 391.117 195.493C387.114 199.926 383.255 204.504 379.577 209.19C377.918 211.28 376.151 213.371 374.708 215.641C373.41 217.696 374.023 219.642 374.925 221.733C375.177 221.481 375.43 221.228 375.682 220.976C374.925 220.507 374.167 220.075 373.41 219.606C373.158 219.462 372.797 219.534 372.653 219.787C371.751 221.445 370.345 223.283 369.84 225.121C369.407 226.743 370.309 228.87 370.669 230.456C370.922 230.239 371.21 230.059 371.463 229.843C370.417 229.374 369.588 228.762 368.83 227.896C368.578 227.608 368.145 227.716 367.965 228.005C365.152 232.186 362.952 236.763 361.437 241.593C360.139 245.774 358.877 250.532 360.716 254.713C361.077 255.362 362.014 254.821 361.726 254.209Z" fill="#919B9B"/>
<path d="M391.081 204.432C389.638 220.76 378.459 233.844 373.807 249.198C373.59 249.883 374.636 250.136 374.852 249.487C379.504 234.024 390.72 220.904 392.162 204.432C392.235 203.711 391.117 203.747 391.081 204.432Z" fill="#919B9B"/>
<path d="M377.449 213.118C378.603 219.066 379.937 224.941 381.452 230.78C381.632 231.465 382.678 231.176 382.498 230.492C380.983 224.652 379.649 218.741 378.495 212.83C378.387 212.145 377.341 212.433 377.449 213.118Z" fill="#919B9B"/>
<path d="M389.638 216.939C392.775 214.668 395.48 211.965 397.824 208.829C398.257 208.288 397.319 207.748 396.887 208.288C394.687 211.244 392.09 213.839 389.097 216.002C388.556 216.434 389.097 217.372 389.638 216.939Z" fill="#919B9B"/>
<path d="M386.285 201.512C387.258 204.612 387.835 208.396 390.215 210.739C390.72 211.244 391.478 210.451 390.973 209.982C388.773 207.784 388.196 204.071 387.294 201.224C387.114 200.575 386.068 200.863 386.285 201.512Z" fill="#919B9B"/>
<path d="M359.562 253.92C357.362 252.19 356.028 249.775 354.91 247.252C353.647 244.296 352.566 241.269 351.592 238.205C349.753 232.33 348.418 226.274 347.625 220.183C346.002 207.423 347.3 194.52 345.75 181.724C345.425 181.832 345.065 181.904 344.74 182.012C348.779 191.096 358.227 196.538 366.089 201.945C366.017 201.692 365.945 201.44 365.909 201.188C364.827 202.738 363.745 204.288 362.663 205.838C362.411 206.198 362.735 206.667 363.132 206.667C364.538 206.667 365.764 206.486 367.099 206.018C366.882 205.946 366.702 205.838 366.486 205.765C367.82 207.82 369.154 209.874 370.489 211.929C370.525 211.713 370.561 211.496 370.561 211.28C369.912 211.893 369.371 212.578 368.83 213.335C368.649 213.587 368.83 214.092 369.154 214.128C372.111 214.56 373.157 217.372 373.915 219.895C374.131 220.543 375.177 220.291 374.96 219.606C374.059 216.759 372.761 213.551 369.443 213.082C369.551 213.335 369.659 213.623 369.767 213.875C370.236 213.154 370.705 212.65 371.318 212.073C371.498 211.929 371.534 211.605 371.39 211.424C370.056 209.37 368.722 207.315 367.387 205.261C367.279 205.081 367.027 204.936 366.774 205.009C365.548 205.405 364.358 205.621 363.096 205.585C363.24 205.874 363.42 206.126 363.565 206.414C364.646 204.864 365.728 203.314 366.81 201.765C366.991 201.512 366.846 201.188 366.63 201.008C358.913 195.709 349.644 190.411 345.678 181.472C345.461 181.003 344.596 181.219 344.668 181.76C346.255 195.024 344.848 208.433 346.723 221.661C347.625 228.041 349.104 234.312 351.159 240.404C352.818 245.342 354.549 251.361 358.768 254.713C359.345 255.11 360.103 254.353 359.562 253.92Z" fill="#919B9B"/>
<path d="M344.957 182.805C347.878 190.879 350.33 199.386 354.261 207.063C356.208 210.848 358.336 214.56 360.175 218.417C362.158 222.598 363.926 226.851 365.729 231.068C365.981 231.717 366.919 231.14 366.666 230.528C364.971 226.491 363.24 222.454 361.401 218.489C359.598 214.596 357.506 210.884 355.487 207.099C351.448 199.386 348.96 190.735 345.966 182.553C345.75 181.868 344.704 182.157 344.957 182.805Z" fill="#919B9B"/>
<path d="M346.327 210.199C350.222 210.667 354.477 210.884 357.434 213.803C357.939 214.308 358.696 213.515 358.191 213.046C355.018 209.947 350.51 209.658 346.327 209.154C345.642 209.045 345.642 210.127 346.327 210.199Z" fill="#919B9B"/>
<path d="M356.749 195.601C356.1 197.944 355.667 200.359 355.487 202.81C355.343 204.9 355.09 207.351 355.812 209.37C356.028 210.019 357.074 209.73 356.857 209.081C356.172 207.171 356.425 204.792 356.569 202.774C356.749 200.431 357.182 198.124 357.795 195.853C357.975 195.204 356.93 194.916 356.749 195.601Z" fill="#919B9B"/>
<path d="M348.779 229.843C351.592 229.915 354.297 229.951 357.038 230.708C359.742 231.465 362.411 232.258 365.116 233.051C365.801 233.231 366.09 232.186 365.404 232.005C362.519 231.176 359.67 230.275 356.749 229.518C354.117 228.834 351.484 228.87 348.779 228.798C348.094 228.725 348.094 229.807 348.779 229.843Z" fill="#919B9B"/>
<path d="M388.232 252.911C390.648 252.586 393.028 252.586 395.444 252.911C395.336 252.659 395.228 252.37 395.12 252.118C394.903 252.442 392.739 252.478 392.307 252.514C391.333 252.659 390.323 252.803 389.349 253.019C389.205 253.055 388.232 253.163 388.195 253.271C388.268 253.091 389.71 253.127 389.926 253.127C390.972 253.127 392.018 253.235 393.064 253.307C393.064 252.947 393.064 252.586 393.064 252.226C392.162 252.19 391.369 252.298 390.467 252.55C389.89 252.695 389.999 253.596 390.612 253.596C392.018 253.596 393.28 253.307 394.651 252.947C395.336 252.767 395.047 251.721 394.362 251.902C393.136 252.226 391.91 252.514 390.612 252.514C390.648 252.875 390.72 253.235 390.756 253.56C391.513 253.343 392.271 253.271 393.064 253.271C393.749 253.271 393.749 252.226 393.064 252.19C391.477 252.118 389.169 251.541 387.727 252.442C387.15 252.803 386.32 253.74 387.078 254.317C387.402 254.569 387.763 254.425 388.159 254.389C389.241 254.172 390.287 253.92 391.369 253.74C392.631 253.524 395.156 253.848 396.021 252.659C396.201 252.406 396.021 251.902 395.696 251.866C393.172 251.505 390.72 251.505 388.195 251.83C387.546 251.902 387.546 252.983 388.232 252.911Z" fill="#919B9B"/>
<path d="M353.648 253.596C354.152 253.452 354.657 253.343 355.162 253.307C355.415 253.307 355.631 253.271 355.883 253.307C355.992 253.307 356.496 253.271 356.533 253.307C356.496 253.127 356.424 252.947 356.388 252.767C356.388 252.803 356.352 252.839 356.352 252.839C356.569 252.731 356.785 252.586 357.001 252.478C356.965 252.478 356.929 252.478 356.929 252.478C357.037 252.586 357.182 252.731 357.29 252.839C357.29 252.803 357.29 252.767 357.254 252.767C357.073 252.082 356.064 252.37 356.208 253.055C356.208 253.091 356.208 253.127 356.244 253.127C356.28 253.307 356.46 253.452 356.605 253.488C356.641 253.488 356.677 253.488 356.677 253.488C356.965 253.56 357.218 253.415 357.326 253.127C357.326 253.091 357.362 253.055 357.362 253.055C357.434 252.875 357.362 252.659 357.218 252.514C356.821 252.118 355.956 252.19 355.451 252.19C354.729 252.19 353.972 252.334 353.287 252.514C352.71 252.731 352.998 253.776 353.648 253.596Z" fill="#919B9B"/>
<path d="M354.477 260.841C367.64 263.111 381.307 264.193 394.29 260.3C394.939 260.084 394.687 259.074 394.001 259.255C381.235 263.075 367.748 262.03 354.765 259.795C354.08 259.687 353.792 260.733 354.477 260.841Z" fill="#919B9B"/>
<path d="M399.808 275.655C422.924 275.655 446.076 275.655 469.192 275.655C469.877 275.655 469.877 274.573 469.192 274.573C446.076 274.573 422.924 274.573 399.808 274.573C399.087 274.573 399.087 275.655 399.808 275.655Z" fill="#919B9B"/>
<path d="M382.318 298.831C404.099 298.831 425.917 298.831 447.699 298.831C448.384 298.831 448.384 297.75 447.699 297.75C425.917 297.75 404.099 297.75 382.318 297.75C381.632 297.75 381.632 298.831 382.318 298.831Z" fill="#919B9B"/>
<path d="M392.235 298.723C389.638 300.886 387.042 303.012 384.481 305.175C383.94 305.607 384.698 306.364 385.239 305.932C387.835 303.769 390.432 301.642 392.992 299.48C393.533 299.047 392.74 298.254 392.235 298.723Z" fill="#919B9B"/>
<path d="M384.806 306.328C385.491 306.328 385.491 305.247 384.806 305.247C384.12 305.247 384.12 306.328 384.806 306.328Z" fill="#919B9B"/>
<path d="M395.805 305.247C373.843 305.247 351.881 305.247 329.919 305.247C329.233 305.247 329.233 306.328 329.919 306.328C351.881 306.328 373.843 306.328 395.805 306.328C396.49 306.328 396.49 305.247 395.805 305.247Z" fill="#919B9B"/>
<path d="M329.811 316.421C333.705 313.177 337.708 310.077 341.819 307.085C342.36 306.689 341.855 305.752 341.278 306.148C337.095 309.176 333.02 312.348 329.053 315.628C328.512 316.096 329.27 316.853 329.811 316.421Z" fill="#919B9B"/>
<path d="M1.49741 296.74C26.9575 296.74 52.4177 296.74 77.8778 296.74C85.0903 296.74 92.3028 296.74 99.5153 296.74C100.2 296.74 100.2 295.659 99.5153 295.659C74.0552 295.659 48.595 295.659 23.1349 295.659C15.9224 295.659 8.70991 295.659 1.49741 295.659C0.812224 295.659 0.812224 296.74 1.49741 296.74Z" fill="#919B9B"/>
<path d="M14.8046 306.148C18.2306 303.229 21.6926 300.309 25.1185 297.389C25.6595 296.921 24.8661 296.164 24.3612 296.633C20.9353 299.552 17.4733 302.472 14.0473 305.391C13.5064 305.824 14.2998 306.617 14.8046 306.148Z" fill="#919B9B"/>
<path d="M2.3989 307.193C26.0559 307.193 49.7129 307.193 73.3699 307.193C74.0551 307.193 74.0551 306.112 73.3699 306.112C49.7129 306.112 26.0559 306.112 2.3989 306.112C1.71371 306.112 1.71371 307.193 2.3989 307.193Z" fill="#919B9B"/>
<path d="M65.1118 306.977C62.4071 310.005 59.6303 312.96 56.8174 315.916C56.3486 316.421 57.1059 317.178 57.5748 316.673C60.3876 313.717 63.1284 310.762 65.8691 307.734C66.374 307.229 65.5806 306.472 65.1118 306.977Z" fill="#919B9B"/>
<path d="M46.6478 317.646C67.4559 317.646 88.2278 317.646 109.036 317.646C109.721 317.646 109.721 316.565 109.036 316.565C88.2278 316.565 67.4559 316.565 46.6478 316.565C45.9626 316.565 45.9626 317.646 46.6478 317.646Z" fill="#919B9B"/>
<path d="M31.8983 278.61C40.6975 278.61 49.4968 278.61 58.3321 278.61C59.0173 278.61 59.0173 277.529 58.3321 277.529C49.5329 277.529 40.7336 277.529 31.8983 277.529C31.2131 277.529 31.2131 278.61 31.8983 278.61Z" fill="#919B9B"/>
<path d="M65.0035 282.143C67.7081 282.143 70.4489 282.143 73.1536 282.143C73.8388 282.143 73.8388 281.062 73.1536 281.062C70.4489 281.062 67.7081 281.062 65.0035 281.062C64.2822 281.062 64.2822 282.143 65.0035 282.143Z" fill="#919B9B"/>
<path d="M45.4215 89.4154C45.4215 95.2905 45.4215 101.202 45.4215 107.077C45.4215 107.762 46.5034 107.762 46.5034 107.077C46.5034 101.202 46.5034 95.2905 46.5034 89.4154C46.5034 88.7305 45.4215 88.7305 45.4215 89.4154Z" fill="#919B9B"/>
<path d="M27.2823 107.942C41.7795 107.942 56.2766 107.942 70.7737 107.942C71.4589 107.942 71.4589 106.86 70.7737 106.86C56.2766 106.86 41.7795 106.86 27.2823 106.86C26.5971 106.86 26.5971 107.942 27.2823 107.942Z" fill="#919B9B"/>
<path d="M57.6467 108.446C57.6467 112.988 57.6467 117.494 57.6467 122.035C57.6467 122.72 58.7286 122.72 58.7286 122.035C58.7286 117.494 58.7286 112.988 58.7286 108.446C58.7286 107.726 57.6467 107.726 57.6467 108.446Z" fill="#919B9B"/>
<path d="M45.6379 123.909C57.1779 123.909 68.7539 123.909 80.2939 123.909C80.9791 123.909 80.9791 122.828 80.2939 122.828C68.7539 122.828 57.1779 122.828 45.6379 122.828C44.9166 122.828 44.9166 123.909 45.6379 123.909Z" fill="#919B9B"/>
<path d="M336.662 76.7638C336.662 78.2055 336.662 79.6112 336.662 81.053C336.662 81.7378 337.744 81.7378 337.744 81.053C337.744 79.6112 337.744 78.2055 337.744 76.7638C337.744 76.0789 336.662 76.0789 336.662 76.7638Z" fill="#919B9B"/>
<path d="M337.528 77.629C362.339 77.629 387.15 77.629 411.961 77.629C412.646 77.629 412.646 76.5476 411.961 76.5476C387.15 76.5476 362.339 76.5476 337.528 76.5476C336.842 76.5476 336.842 77.629 337.528 77.629Z" fill="#919B9B"/>
<path d="M338.177 81.5936C362.771 81.5936 387.366 81.5936 411.925 81.5936C412.61 81.5936 412.61 80.5123 411.925 80.5123C387.33 80.5123 362.735 80.5123 338.177 80.5123C337.492 80.5123 337.492 81.5936 338.177 81.5936Z" fill="#919B9B"/>
<path d="M411.78 76.7637C411.636 78.2416 411.708 79.7194 411.961 81.1972C412.069 81.882 413.115 81.5936 413.007 80.9088C412.754 79.5391 412.718 78.1334 412.862 76.7637C412.934 76.0789 411.853 76.0789 411.78 76.7637Z" fill="#919B9B"/>
<path d="M342.612 76.7998C342.612 66.7435 342.612 56.6872 342.612 46.6309C342.612 45.9461 341.531 45.9461 341.531 46.6309C341.531 56.6872 341.531 66.7435 341.531 76.7998C341.531 77.5207 342.612 77.5207 342.612 76.7998Z" fill="#919B9B"/>
<path d="M342.613 46.8111C345.678 45.5856 348.924 45.7659 351.772 47.4599C352.386 47.8204 352.926 46.8832 352.313 46.5228C349.248 44.7206 345.606 44.4322 342.324 45.7659C341.675 46.0182 341.964 47.0635 342.613 46.8111Z" fill="#919B9B"/>
<path d="M351.592 47.2076C351.592 56.8674 351.592 66.5632 351.592 76.223C351.592 76.9079 352.674 76.9079 352.674 76.223C352.674 66.5632 352.674 56.8674 352.674 47.2076C352.674 46.5228 351.592 46.5228 351.592 47.2076Z" fill="#919B9B"/>
<path d="M352.818 55.2816C355.018 54.3805 357.326 54.5247 359.382 55.7862C359.995 56.1466 360.536 55.2095 359.923 54.8491C357.651 53.4794 354.982 53.2271 352.53 54.2363C351.881 54.4886 352.169 55.5339 352.818 55.2816Z" fill="#919B9B"/>
<path d="M359.166 55.7502C359.166 62.5265 359.166 69.2667 359.166 76.043C359.166 76.7278 360.247 76.7278 360.247 76.043C360.247 69.2667 360.247 62.5265 360.247 55.7502C360.247 55.0654 359.166 55.0654 359.166 55.7502Z" fill="#919B9B"/>
<path d="M342.757 55.1013C345.822 54.4165 348.851 54.6327 351.809 55.678C352.458 55.8943 352.746 54.849 352.097 54.6327C348.96 53.5153 345.714 53.3712 342.468 54.056C341.819 54.2002 342.108 55.2455 342.757 55.1013Z" fill="#919B9B"/>
<path d="M352.061 67.6087C354.369 66.9959 356.677 66.9238 359.021 67.4285C359.706 67.5726 359.995 66.5273 359.31 66.3832C356.785 65.8425 354.297 65.8786 351.772 66.5634C351.123 66.7436 351.376 67.7889 352.061 67.6087Z" fill="#919B9B"/>
<path d="M372.797 76.4393C372.797 74.4208 372.797 72.4023 372.797 70.3839C372.797 69.699 371.715 69.699 371.715 70.3839C371.715 72.4023 371.715 74.4208 371.715 76.4393C371.715 77.1241 372.797 77.1241 372.797 76.4393Z" fill="#919B9B"/>
<path d="M372.256 70.7084C383.976 70.7084 395.66 70.7084 407.381 70.7084C408.066 70.7084 408.066 69.6271 407.381 69.6271C395.66 69.6271 383.976 69.6271 372.256 69.6271C371.534 69.6271 371.534 70.7084 372.256 70.7084Z" fill="#919B9B"/>
<path d="M407.742 71.2851C408.427 71.2851 408.427 70.2037 407.742 70.2037C407.02 70.2037 407.02 71.2851 407.742 71.2851Z" fill="#919B9B"/>
<path d="M407.201 70.7445C407.201 72.5827 407.201 74.421 407.201 76.2592C407.201 76.944 408.283 76.944 408.283 76.2592C408.283 74.421 408.283 72.5827 408.283 70.7445C408.283 70.0596 407.201 70.0596 407.201 70.7445Z" fill="#919B9B"/>
<path d="M379.613 69.9875C379.613 68.0772 379.613 66.2029 379.613 64.2926C379.613 63.6077 378.531 63.6077 378.531 64.2926C378.531 66.2029 378.531 68.0772 378.531 69.9875C378.531 70.6724 379.613 70.6724 379.613 69.9875Z" fill="#919B9B"/>
<path d="M379.072 64.653C390.576 64.653 402.08 64.653 413.62 64.653C414.305 64.653 414.305 63.5717 413.62 63.5717C402.116 63.5717 390.612 63.5717 379.072 63.5717C378.387 63.5717 378.387 64.653 379.072 64.653Z" fill="#919B9B"/>
<path d="M413.259 64.1123C413.259 65.6983 413.259 67.2842 413.259 68.8701C413.259 69.555 414.341 69.555 414.341 68.8701C414.341 67.2842 414.341 65.6983 414.341 64.1123C414.341 63.3914 413.259 63.3914 413.259 64.1123Z" fill="#919B9B"/>
<path d="M406.984 70.8887C409.076 70.8887 411.168 70.8887 413.259 70.8887C413.944 70.8887 413.944 69.8074 413.259 69.8074C411.168 69.8074 409.076 69.8074 406.984 69.8074C406.263 69.8074 406.263 70.8887 406.984 70.8887Z" fill="#919B9B"/>
<path d="M413.187 68.9062C413.115 69.3026 413.115 69.6631 413.223 70.0235C413.295 70.3119 413.62 70.4921 413.872 70.384C414.161 70.3119 414.341 69.9875 414.233 69.7352C414.197 69.555 414.161 69.3387 414.197 69.1945C414.233 68.9062 414.125 68.5818 413.836 68.5457C413.584 68.4736 413.223 68.6178 413.187 68.9062Z" fill="#919B9B"/>
<path d="M387.294 64.3646C387.763 66.2029 387.871 68.0772 387.618 69.9875C387.546 70.6723 388.628 70.6723 388.7 69.9875C388.953 68.0051 388.809 66.0227 388.34 64.0763C388.159 63.4275 387.114 63.7158 387.294 64.3646Z" fill="#919B9B"/>
<path d="M395.444 70.6364C395.697 72.4386 395.553 74.2047 395.12 75.9348C394.939 76.6196 395.985 76.908 396.166 76.2232C396.671 74.2768 396.779 72.3304 396.49 70.348C396.418 69.6632 395.372 69.9515 395.444 70.6364Z" fill="#919B9B"/>
<path d="M388.376 114.502C388.376 117.349 388.376 120.161 388.376 123.008C388.376 123.693 389.458 123.693 389.458 123.008C389.458 120.161 389.458 117.349 389.458 114.502C389.458 113.781 388.376 113.781 388.376 114.502Z" fill="#919B9B"/>
<path d="M380.01 123.152C387.222 123.152 394.435 123.152 401.647 123.152C402.332 123.152 402.332 122.071 401.647 122.071C394.435 122.071 387.222 122.071 380.01 122.071C379.324 122.071 379.324 123.152 380.01 123.152Z" fill="#919B9B"/>
<path d="M367.712 1.90035C367.712 8.38827 367.712 14.9122 367.712 21.4002C367.712 22.085 368.794 22.085 368.794 21.4002C368.794 14.9122 368.794 8.38827 368.794 1.90035C368.794 1.21551 367.712 1.21551 367.712 1.90035Z" fill="#919B9B"/>
<path d="M369.082 1.86426C377.305 1.86426 385.491 1.86426 393.713 1.86426C394.398 1.86426 394.398 0.782959 393.713 0.782959C385.491 0.782959 377.305 0.782959 369.082 0.782959C368.397 0.782959 368.397 1.86426 369.082 1.86426Z" fill="#919B9B"/>
<path d="M393.749 1.72005C393.749 7.99171 393.749 14.2634 393.749 20.499C393.749 21.1838 394.831 21.1838 394.831 20.499C394.831 14.2273 394.831 7.95567 394.831 1.72005C394.831 1.03521 393.749 1.03521 393.749 1.72005Z" fill="#919B9B"/>
<path d="M368.109 22.0128C376.836 22.0128 385.563 22.0128 394.29 22.0128C394.976 22.0128 394.976 20.9315 394.29 20.9315C385.563 20.9315 376.836 20.9315 368.109 20.9315C367.424 20.9315 367.424 22.0128 368.109 22.0128Z" fill="#919B9B"/>
<path d="M370.128 4.13497C370.128 9.073 370.128 13.975 370.128 18.913C370.128 19.5979 371.21 19.5979 371.21 18.913C371.21 13.975 371.21 9.073 371.21 4.13497C371.21 3.45013 370.128 3.45013 370.128 4.13497Z" fill="#919B9B"/>
<path d="M370.922 4.56765C377.665 4.56765 384.445 4.56765 391.189 4.56765C391.874 4.56765 391.874 3.48633 391.189 3.48633C384.445 3.48633 377.665 3.48633 370.922 3.48633C370.236 3.48633 370.236 4.56765 370.922 4.56765Z" fill="#919B9B"/>
<path d="M390.792 4.13497C390.792 8.71256 390.792 13.2541 390.792 17.8317C390.792 18.5165 391.874 18.5165 391.874 17.8317C391.874 13.2541 391.874 8.71256 391.874 4.13497C391.874 3.45013 390.792 3.45013 390.792 4.13497Z" fill="#919B9B"/>
<path d="M370.922 19.4536C377.629 19.4536 384.337 19.4536 391.081 19.4536C391.766 19.4536 391.766 18.3723 391.081 18.3723C384.373 18.3723 377.665 18.3723 370.922 18.3723C370.236 18.3723 370.236 19.4536 370.922 19.4536Z" fill="#919B9B"/>
<path d="M383.688 12.9657C380.839 10.8031 385.094 6.29759 387.078 9.0009C388.917 11.4519 385.924 14.4075 383.363 13.0378C382.75 12.7134 382.209 13.6506 382.822 13.975C384.481 14.8761 386.681 14.6238 387.871 13.0739C389.097 11.524 388.953 9.07298 387.402 7.77539C385.78 6.44176 383.472 7.34286 382.354 8.85672C381.164 10.5147 381.524 12.6774 383.147 13.9029C383.724 14.2994 384.229 13.3622 383.688 12.9657Z" fill="#919B9B"/>
<path d="M380.262 18.3003C380.117 15.4528 383.615 14.3715 385.815 14.3715C388.52 14.3715 389.385 16.7864 390.503 18.8409C390.828 19.4537 391.765 18.913 391.441 18.3003C390.684 16.9306 389.962 15.1284 388.7 14.1192C387.546 13.2181 386.104 13.2541 384.733 13.3983C382.209 13.6866 378.999 15.2365 379.18 18.3003C379.216 18.9851 380.298 18.9851 380.262 18.3003Z" fill="#919B9B"/>
<path d="M371.391 15.7051C372.184 14.2273 375.105 14.804 376.187 15.3807C377.305 15.9934 377.954 17.0027 378.242 18.2282C378.387 18.913 379.432 18.6246 379.288 17.9398C378.855 16.0655 377.557 14.5877 375.682 13.975C374.095 13.4704 371.391 13.4343 370.489 15.1284C370.128 15.7772 371.066 16.3178 371.391 15.7051Z" fill="#919B9B"/>
<path d="M373.482 13.0381C372.292 13.002 372.581 11.2359 373.086 10.6231C373.735 9.83013 375.033 9.722 375.79 10.4789C376.403 11.0556 376.584 12.137 376.079 12.8218C375.718 13.3264 375.177 13.4345 374.6 13.4345C374.384 13.4345 373.482 13.4706 373.338 13.2904C372.941 12.7137 372.004 13.2543 372.4 13.831C372.833 14.4798 373.735 14.5159 374.456 14.5159C375.321 14.5519 376.151 14.3356 376.764 13.6869C377.918 12.4253 377.521 10.2987 376.151 9.36156C374.672 8.38837 372.617 8.92903 371.86 10.515C371.21 11.9207 371.679 14.0473 373.482 14.0833C374.204 14.1554 374.204 13.0741 373.482 13.0381Z" fill="#919B9B"/>
</svg>
